<svg id="图层_1" data-name="图层 1" xmlns="http://www.w3.org/2000/svg" viewBox="0 0 34.07 32.46"><defs><style>.cls-1{fill:#7dc4bd;}.cls-2{fill:#e3f1ef;}.cls-3{fill:#b6dbd6;}.cls-4{fill:#c5e2de;}.cls-5{fill:#b4dad5;}.cls-6{fill:#a2d3cd;}.cls-7{fill:#d0e7e4;}.cls-8{fill:#9dd0ca;}.cls-9{fill:#e4f2ef;}.cls-10{fill:#abd7d1;}</style></defs><path class="cls-1" d="M28.48,32.08a6.46,6.46,0,0,0,4.46-1.3,7.22,7.22,0,0,1,3.4-1.53,3.46,3.46,0,0,1,2.79.74c-1.46-.31-2.62.4-3.8,1.08-.7.4-1.39.83-2.13,1.18a4.74,4.74,0,0,1-4,.38,2.47,2.47,0,0,0,.94.74,7.89,7.89,0,0,0,2.65.75,6.74,6.74,0,0,1,3.7,1.42,3.31,3.31,0,0,1,1.09,2.25c-.75-1.24-2-1.54-3.2-1.84a20,20,0,0,1-3.71-1,3.94,3.94,0,0,1-2.32-2.59v-.15Z" transform="translate(-11.37 -15.86)"/><path class="cls-1" d="M41.37,21.35c-.61,2.92-2.48,5.24-6.16,4.81a4.25,4.25,0,0,1,.51-.13,2.28,2.28,0,0,0,2.06-2A1.37,1.37,0,0,1,38.43,23c.19-.1.07-.19,0-.28a1.11,1.11,0,0,0-1.72.12,1.33,1.33,0,0,1-2,.37.76.76,0,0,1-.05-1.29A2.74,2.74,0,0,1,37,21.45c.62.13,1.22.35,1.83.42A3.48,3.48,0,0,0,41.37,21.35Z" transform="translate(-11.37 -15.86)"/><path class="cls-1" d="M16.35,43.71a6,6,0,0,1,2.27-4.33,5.62,5.62,0,0,1,3.11-.79c-.33.14-.59.28-.87.37a1.88,1.88,0,0,0-1.22,1.83c-.06.52-.07,1.05-.66,1.3-.13.06-.08.14,0,.21A1.24,1.24,0,0,0,21,41.87a1.29,1.29,0,0,1,1.95-.29A.87.87,0,0,1,22.74,43a2.78,2.78,0,0,1-2.15.46,13.27,13.27,0,0,0-2.08-.25,3.89,3.89,0,0,0-2.15.71Z" transform="translate(-11.37 -15.86)"/><path class="cls-1" d="M18.89,31.66a2.24,2.24,0,0,0-2.15-.29,6.83,6.83,0,0,0-1,.52,1.25,1.25,0,0,1-1.07.22c-.24-.07-.3,0-.28.26a1.13,1.13,0,0,0,1.07,1,2.74,2.74,0,0,0,.5,0,1.22,1.22,0,0,1,1.48.92.85.85,0,0,1-.78,1.13,2,2,0,0,1-1.32-.45,4.4,4.4,0,0,1-1.27-1.54,3.71,3.71,0,0,0-2.5-2,1.56,1.56,0,0,1-.24-.1,8.18,8.18,0,0,1,1.84-.89A6.91,6.91,0,0,1,15.6,30,4.42,4.42,0,0,1,19,31.58Z" transform="translate(-11.37 -15.86)"/><path class="cls-1" d="M37.75,31.91c.4.07.7.28,1,.37a2.2,2.2,0,0,0,1.72-.35c.53-.33,1-.83,1.68-.69.2,0,.16-.16.15-.28A1.12,1.12,0,0,0,41.11,30c-.16,0-.3.08-.45.11A1.25,1.25,0,0,1,39.15,29a.79.79,0,0,1,.79-.85,2.57,2.57,0,0,1,2.25,1.23,6.75,6.75,0,0,0,2,2.07,9,9,0,0,0,1.27.43C43.08,33.65,39.9,34.24,37.75,31.91Z" transform="translate(-11.37 -15.86)"/><path class="cls-1" d="M28.44,41.15c0,.08,0,.13,0,.19a2.24,2.24,0,0,0,.5,2.86,1,1,0,0,1,.34.89c0,.34.12.35.37.29a1.09,1.09,0,0,0,.75-1.62.69.69,0,0,1,.17-.73,1.32,1.32,0,0,1,1.22-.67.79.79,0,0,1,.77.69,1.93,1.93,0,0,1-.69,1.73,12.31,12.31,0,0,1-1.51,1,3.65,3.65,0,0,0-1.68,2.26.75.75,0,0,1,0,.16.3.3,0,0,1-.08.07,6.76,6.76,0,0,1-1.65-4.24A4.1,4.1,0,0,1,28.44,41.15Z" transform="translate(-11.37 -15.86)"/><path class="cls-1" d="M17.78,24.09a1.12,1.12,0,0,0,.6.71,1.23,1.23,0,0,1,.29,1.86,1,1,0,0,1-1.56-.24,2.85,2.85,0,0,1-.28-2.12,7.58,7.58,0,0,0,.3-2.27,3.78,3.78,0,0,0-.62-1.68,5.41,5.41,0,0,1,1.26.27,6.74,6.74,0,0,1,2.43,1.2,4.23,4.23,0,0,1,1.59,4.11,4.73,4.73,0,0,0-.43-1.3,1.71,1.71,0,0,0-1.27-.86,5.74,5.74,0,0,0-.9-.18,1,1,0,0,1-.78-.43c-.19-.28-.33-.26-.46,0-.06.12-.12.25-.17.38C17.53,23.74,17.53,23.91,17.78,24.09Z" transform="translate(-11.37 -15.86)"/><path class="cls-1" d="M29.79,15.86c2.19,3.36,1.35,5.9-.51,7.11-.09-.11,0-.19.06-.26.61-1.06.45-1.63-.29-2.7a1.07,1.07,0,0,1-.25-1c.07-.26,0-.31-.26-.3a1.17,1.17,0,0,0-1.09,1.33,1.23,1.23,0,0,1-1.27,1.48.8.8,0,0,1-.85-1,2.4,2.4,0,0,1,1.39-1.77c.44-.26.93-.45,1.37-.72A3.32,3.32,0,0,0,29.79,15.86Z" transform="translate(-11.37 -15.86)"/><path class="cls-1" d="M35.28,38.17c.37,1.31.88,1.64,2.29,1.83a1.56,1.56,0,0,1,1.18.52c.14.19.27.17.41,0a1,1,0,0,0-.44-1.62,1.16,1.16,0,0,1-.56-1.69.91.91,0,0,1,1.63-.07,2.44,2.44,0,0,1,.42,2.23A4.54,4.54,0,0,0,40,41.68a3.82,3.82,0,0,0,.58,1.24c0,.07.1.17.08.22s-.17,0-.26,0a8,8,0,0,1-3.62-1.43,3.85,3.85,0,0,1-1.57-3C35.25,38.56,35.12,38.34,35.28,38.17Z" transform="translate(-11.37 -15.86)"/><path class="cls-1" d="M28.48,32.08l-.09.1-.09-.07-.08-.27a.73.73,0,0,0,.09-.35h.07c0,.11,0,.25.08.34a2.46,2.46,0,0,0,1.24-1,6,6,0,0,0,1.42-2.94A5.79,5.79,0,0,1,32.4,25.2a3.21,3.21,0,0,1,2.9-1.34,3.46,3.46,0,0,0-1.88,2.23c-.45,1-.71,2.12-1.18,3.13a4.34,4.34,0,0,1-2.92,2.66C29,32,28.73,31.9,28.48,32.08Z" transform="translate(-11.37 -15.86)"/><path class="cls-1" d="M28.31,31.49a.73.73,0,0,1-.09.35l-.16-.09c-.23-.58-.79-.79-1.25-1.11a6.85,6.85,0,0,0-2.95-1,6.57,6.57,0,0,1-3.45-1.48,2.64,2.64,0,0,1-.95-1.72c0-.11,0-.25.09-.34a3.58,3.58,0,0,0,2.33,1.51,30.39,30.39,0,0,1,4.2,1.28A3.57,3.57,0,0,1,28.31,31.49Z" transform="translate(-11.37 -15.86)"/><path class="cls-1" d="M22.18,40.78a3.36,3.36,0,0,0,1.48-2.09c.35-1.12.44-2.31.83-3.42a4.33,4.33,0,0,1,3-3.1s.06-.05.09-.08h.43a.19.19,0,0,1,0,.07,3.36,3.36,0,0,0-1.07,1,7.23,7.23,0,0,0-1.27,3.58,4.75,4.75,0,0,1-.79,2.37,3.51,3.51,0,0,1-2.48,1.74C22.34,40.84,22.23,40.88,22.18,40.78Z" transform="translate(-11.37 -15.86)"/><path class="cls-1" d="M28.05,32.09h-.43a6.88,6.88,0,0,0-3.88,1.14,6.92,6.92,0,0,1-3.56,1.25,3.1,3.1,0,0,1-2.4-.78l.1-.1a4.41,4.41,0,0,0,2.95-.55c1-.46,2-1,3-1.41a4.64,4.64,0,0,1,3.67-.13l.57.24.16.09.08.27Z" transform="translate(-11.37 -15.86)"/><path class="cls-1" d="M28.32,32.34A5.29,5.29,0,0,0,28.74,35a7.73,7.73,0,0,0,1.06,1.65,6.16,6.16,0,0,1,1.49,2.86A3.31,3.31,0,0,1,30.91,42c-.07.11-.12.25-.31.31a3.3,3.3,0,0,0,0-1,9.12,9.12,0,0,0-1.16-2.44,16.1,16.1,0,0,1-1.39-2.24,9.88,9.88,0,0,1-.6-1.68A3.23,3.23,0,0,1,28,32.59c.06-.12.13-.22.19-.33Z" transform="translate(-11.37 -15.86)"/><path class="cls-1" d="M28.46,31.83c-.11-.09-.06-.23-.08-.34A5.63,5.63,0,0,0,27.69,28a12.27,12.27,0,0,1-1.14-2,5.68,5.68,0,0,1-.36-1.46v-.94a2.75,2.75,0,0,1,1-1.83,3.24,3.24,0,0,0,.26,2.52c.58,1.08,1,2.22,1.63,3.28A3.9,3.9,0,0,1,28.46,31.83Z" transform="translate(-11.37 -15.86)"/><path class="cls-1" d="M29.38,27.12a2.38,2.38,0,0,1-.52-2.52,4,4,0,0,1,1.48-1.89,2.7,2.7,0,0,0,1.25-2c0-.19.08-.38.13-.67a4.82,4.82,0,0,1,1,2.8,1.66,1.66,0,0,1-.57,1.27,1.63,1.63,0,0,1-.38.24A3.59,3.59,0,0,0,29.38,27.12Z" transform="translate(-11.37 -15.86)"/><path class="cls-1" d="M36,41.93a5.61,5.61,0,0,1-2.88-1,1.54,1.54,0,0,1-.61-1.64,3.85,3.85,0,0,0-.73-3.49,3,3,0,0,1,2,.86,3.33,3.33,0,0,1,1,2.3A3.55,3.55,0,0,0,36,41.93Z" transform="translate(-11.37 -15.86)"/><path class="cls-1" d="M32.72,29.08a3.39,3.39,0,0,1,4-2.43,3.59,3.59,0,0,0,2.62-.73l.14-.09.13,0a4,4,0,0,1-.75,1.88,4.09,4.09,0,0,1-.57.61,1.66,1.66,0,0,1-1.7.44,4.35,4.35,0,0,0-3.75.38S32.76,29.09,32.72,29.08Z" transform="translate(-11.37 -15.86)"/><path class="cls-1" d="M24,35.39A2.82,2.82,0,0,1,22,38a4.85,4.85,0,0,1-1.82.28,3,3,0,0,0-2.23.9l-.22.19a.93.93,0,0,1-.18.06,4.06,4.06,0,0,1,.53-1.79,2.18,2.18,0,0,1,1.32-1.38,3.72,3.72,0,0,1,1.66,0,3.79,3.79,0,0,0,2.76-.74Z" transform="translate(-11.37 -15.86)"/><path class="cls-1" d="M15.8,29.33a5.19,5.19,0,0,1,3.2-.94,1.57,1.57,0,0,1,1.17.66c.2.27.4.53.59.81a3.8,3.8,0,0,0,2.51,1.51,3,3,0,0,1-2.09.6,3.85,3.85,0,0,1-2.61-1.45,3.35,3.35,0,0,0-2.51-1.13h-.17Z" transform="translate(-11.37 -15.86)"/><path class="cls-1" d="M33.61,32.57a2.55,2.55,0,0,1,1.58-.72,3.46,3.46,0,0,1,2.91,1A4.06,4.06,0,0,0,40,34a9.63,9.63,0,0,0,1.08.08s0,.06,0,.07a4.07,4.07,0,0,1-3.53,1,1.6,1.6,0,0,1-.95-.78A3.9,3.9,0,0,0,33.61,32.57Z" transform="translate(-11.37 -15.86)"/><path class="cls-1" d="M26.29,44.24a.27.27,0,0,1-.29-.11,4.62,4.62,0,0,1-1-2.5A1.68,1.68,0,0,1,26,40a3.39,3.39,0,0,0,1.33-1.3,2.53,2.53,0,0,0,.54-1.48,2.27,2.27,0,0,1,.72,1.46,3,3,0,0,1-1.08,2.77A3.16,3.16,0,0,0,26.29,44.24Z" transform="translate(-11.37 -15.86)"/><path class="cls-1" d="M21.22,21.83c.23-.09.44,0,.65.07a4.94,4.94,0,0,1,1.77.74,1.81,1.81,0,0,1,.82,2.11A3.54,3.54,0,0,0,24.52,27a8.4,8.4,0,0,0,.64,1.07,3,3,0,0,1-2.83-2.95,3.37,3.37,0,0,1,0-.55,2.93,2.93,0,0,0-1-2.52C21.3,22,21.21,21.94,21.22,21.83Z" transform="translate(-11.37 -15.86)"/><path class="cls-2" d="M26.19,23.57v.94A.73.73,0,0,1,26.19,23.57Z" transform="translate(-11.37 -15.86)"/><path class="cls-3" d="M35.28,38.17c-.16.17,0,.39-.09.58-.15-.29,0-.61-.1-1A.69.69,0,0,1,35.28,38.17Z" transform="translate(-11.37 -15.86)"/><path class="cls-4" d="M17.78,24.09c-.25-.18-.25-.35,0-.52Z" transform="translate(-11.37 -15.86)"/><path class="cls-5" d="M19.55,26.11c-.13.09-.06.23-.09.34-.14-.18,0-.39-.09-.61C19.51,25.91,19.5,26,19.55,26.11Z" transform="translate(-11.37 -15.86)"/><path class="cls-6" d="M17.88,33.6l-.1.1a.35.35,0,0,1-.3-.23A.66.66,0,0,1,17.88,33.6Z" transform="translate(-11.37 -15.86)"/><path class="cls-7" d="M22.18,40.78c.05.1.16.06.24.09-.16.12-.34.06-.53.06C22,40.82,22.08,40.82,22.18,40.78Z" transform="translate(-11.37 -15.86)"/><path class="cls-8" d="M18.89,31.66l.08-.08c.12,0,.21,0,.23.2C19.08,31.78,19,31.78,18.89,31.66Z" transform="translate(-11.37 -15.86)"/><path class="cls-9" d="M28.32,32.34l-.1-.08c0-.08-.11-.08-.19-.1a.19.19,0,0,0,0-.07l.25,0,.09.07v.15Z" transform="translate(-11.37 -15.86)"/><path class="cls-10" d="M16.35,43.71v.17c-.05.06-.11.1-.15,0S16.25,43.73,16.35,43.71Z" transform="translate(-11.37 -15.86)"/></svg>